<?xml version="1.0" encoding="UTF-8"?>
<svg xmlns="http://www.w3.org/2000/svg" version="1.1" viewBox="0 0 841.73 132.62">
  <defs>
    <style>
      .cls-1 {
        fill: #00ff6a;
      }

      .cls-2 {
        display: none;
        fill: #070414;
      }
    </style>
  </defs>
  <!-- Generator: Adobe Illustrator 28.7.4, SVG Export Plug-In . SVG Version: 1.2.0 Build 166)  -->
  <g>
    <g id="Layer_2">
      <rect class="cls-2" x="-91.13" y="-123.69" width="1024" height="380"/>
    </g>
    <g id="Layer_1">
      <g>
        <path class="cls-1" d="M48.04,36.28c5.65-1.03,10.77-.73,15.22.88,4.42,1.61,7.98,4.3,10.58,7.99,2.57,3.66,3.88,8.24,3.88,13.61,0,5.73-1.35,11.09-4.02,15.94-2.68,4.87-6.42,9.06-11.09,12.47-4.69,3.42-10.06,5.69-15.95,6.77-7.19,1.32-14.38,2.68-21.57,4.07-.83.16-1.65.32-2.48.48,0,.83,0,1.67,0,2.5,0,8.2,0,16.41,0,24.61-6.71,1.31-13.42,2.66-20.13,4.04v-43.98c13.1-2.7,26.21-5.26,39.35-7.7,2.7-.5,5.12-1.4,7.2-2.68,2.19-1.34,3.99-3.11,5.35-5.26,1.41-2.22,2.12-4.64,2.12-7.21,0-2.57-.76-4.62-2.26-6.09-1.38-1.35-3.18-2.24-5.36-2.62-1.92-.34-4.14-.3-6.6.11h0c-.83.15-1.65.3-2.48.46-12.46,2.33-24.9,4.77-37.32,7.33v-16.87c15.16-3.12,30.36-6.07,45.57-8.85M48.04,33.78C32,36.71,15.99,39.83,0,43.14v21.87c13.24-2.74,26.51-5.35,39.79-7.84h0c.68-.12,1.35-.25,2.03-.38,2.37-.44,4.44-.5,6.22-.19,1.78.32,3.22,1.01,4.32,2.09,1.1,1.08,1.65,2.6,1.65,4.56,0,2.05-.55,3.94-1.65,5.67-1.1,1.73-2.54,3.14-4.32,4.24-1.78,1.09-3.85,1.86-6.22,2.3C27.86,78.06,13.92,80.8,0,83.68v48.98c8.35-1.73,16.71-3.41,25.08-5.03v-27.11c7.18-1.4,14.37-2.75,21.57-4.07,6.35-1.16,12.07-3.59,17.15-7.29,5.08-3.7,9.09-8.2,12.02-13.51,2.93-5.31,4.39-11.07,4.39-17.3,0-5.88-1.42-10.85-4.26-14.89-2.84-4.04-6.68-6.95-11.51-8.71-4.83-1.76-10.29-2.09-16.39-.98h0Z"/>
        <path class="cls-1" d="M201.75,14.12v84.52c-6.78.72-13.56,1.47-20.33,2.26v-33.25c-.83.1-1.67.19-2.5.29-12.96,1.52-25.91,3.17-38.85,4.93-.83.11-1.66.23-2.5.34v33.25c-6.76.93-13.52,1.9-20.27,2.9V24.84c6.75-1,13.51-1.96,20.27-2.9v34.02c.83-.11,1.66-.23,2.5-.34,12.94-1.77,25.89-3.41,38.85-4.93.83-.1,1.67-.2,2.5-.29V16.38c6.77-.79,13.55-1.54,20.33-2.26M204.25,11.36c-8.45.89-16.9,1.83-25.34,2.82v34.02c-12.96,1.52-25.91,3.17-38.85,4.93V19.11c-8.43,1.15-16.85,2.35-25.26,3.61v89.52c8.41-1.25,16.84-2.46,25.26-3.61v-33.25c12.94-1.77,25.89-3.41,38.85-4.93v33.25c8.44-.99,16.89-1.93,25.34-2.82V11.36h0Z"/>
        <path class="cls-1" d="M291.52,6.56c12.81,27.37,25.62,54.87,38.43,82.48-6.68.29-13.35.62-20.02.97-8.53-19.01-17.06-37.97-25.59-56.87-.76-1.69-1.53-3.39-2.29-5.08-.77,1.79-1.54,3.59-2.3,5.39-8.57,20.05-17.14,40.16-25.71,60.32-6.49.52-12.98,1.08-19.47,1.66,12.83-29.33,25.66-58.54,38.5-87.63,6.15-.44,12.3-.85,18.46-1.24M293.13,3.96c-7.23.45-14.46.93-21.69,1.45-13.6,30.82-27.19,61.78-40.78,92.87,8.33-.77,16.66-1.48,25-2.15,8.79-20.67,17.58-41.28,26.37-61.83,8.75,19.38,17.5,38.81,26.25,58.31,8.52-.46,17.04-.87,25.56-1.23-13.58-29.27-27.15-58.41-40.71-87.41h0Z"/>
        <path class="cls-1" d="M452.55,2.76v84.52c-6.71-.1-13.41-.17-20.12-.21-15.2-17.61-30.4-35.05-45.6-52.33-1.47-1.67-2.94-3.34-4.41-5.01,0,2.24,0,4.48,0,6.71-.02,16.98-.04,33.96-.05,50.95-6.51.12-13.02.27-19.53.45V3.33c6.62-.19,13.23-.34,19.85-.46,15.21,17.4,30.42,34.98,45.63,52.71,1.46,1.71,2.93,3.41,4.39,5.12.01-2.24.02-4.48.03-6.71.09-17.15.18-34.29.27-51.44,6.51.04,13.03.11,19.54.21M455.06.3c-8.18-.13-16.37-.22-24.55-.26-.09,17.98-.19,35.95-.28,53.93-15.46-18.05-30.93-35.92-46.39-53.62-7.84.14-15.68.32-23.52.55v89.52c8.18-.24,16.37-.43,24.55-.57.02-17.81.04-35.63.06-53.44,15.45,17.55,30.9,35.27,46.35,53.16,7.93.04,15.85.13,23.78.26,0-29.84,0-59.68,0-89.52t0,0Z"/>
        <path class="cls-1" d="M575.22,8.37v16.87c-10.2-.76-20.4-1.45-30.6-2.05-.84-.05-1.67-.1-2.51-.15v67.65c-6.8-.4-13.6-.76-20.41-1.09V21.94c-.84-.04-1.67-.08-2.51-.12-9.95-.47-19.91-.87-29.86-1.2V3.75c28.65.95,57.29,2.49,85.89,4.62M577.72,6.06c-30.27-2.29-60.58-3.92-90.91-4.89v21.87c10.79.34,21.59.77,32.38,1.28,0,22.55,0,45.1,0,67.65,8.48.4,16.95.86,25.43,1.36V25.68c11.04.66,22.08,1.41,33.11,2.24V6.06h0Z"/>
        <path class="cls-1" d="M653.2,13.18c7.52.85,14.47,2.79,20.65,5.74,6.14,2.94,11.54,6.76,16.05,11.34,4.48,4.55,7.97,9.71,10.36,15.31,2.39,5.6,3.61,11.61,3.61,17.87,0,6.35-1.21,12.09-3.61,17.09-2.39,4.99-5.88,9.23-10.36,12.61-4.51,3.4-9.91,5.84-16.05,7.27-6.18,1.44-13.12,1.73-20.65.88-7.44-.84-14.36-2.71-20.59-5.59-6.2-2.86-11.62-6.52-16.1-10.89-4.46-4.35-7.96-9.35-10.4-14.9-2.44-5.53-3.68-11.5-3.68-17.76,0-6.33,1.26-12.11,3.74-17.15,2.49-5.06,6.01-9.42,10.47-12.93,4.48-3.52,9.88-6.13,16.04-7.72,6.19-1.6,13.09-2,20.52-1.16M653.33,82.77c4.18.47,8.13.3,11.75-.5,3.66-.82,6.86-2.22,9.51-4.18,2.68-1.98,4.79-4.47,6.26-7.41,1.47-2.95,2.22-6.27,2.22-9.86,0-3.59-.75-7.1-2.22-10.42-1.47-3.31-3.57-6.32-6.26-8.97-2.66-2.62-5.89-4.8-9.59-6.49-3.65-1.67-7.58-2.75-11.67-3.21-4.27-.48-8.26-.29-11.88.56-3.64.85-6.86,2.28-9.56,4.24-2.75,1.99-4.9,4.52-6.37,7.51-1.47,2.99-2.22,6.37-2.22,10.05,0,3.59.75,7.1,2.22,10.41,1.48,3.33,3.62,6.31,6.38,8.87,2.7,2.51,5.91,4.6,9.56,6.23,3.61,1.62,7.61,2.68,11.88,3.16M653.2,10.68c-7.76-.87-14.89-.46-21.38,1.22-6.49,1.68-12.1,4.4-16.84,8.13-4.74,3.73-8.44,8.3-11.09,13.7-2.65,5.39-3.97,11.46-3.97,18.2,0,6.65,1.3,12.92,3.91,18.82,2.61,5.9,6.28,11.15,11.02,15.78,4.74,4.62,10.38,8.43,16.91,11.44,6.53,3.01,13.68,4.94,21.44,5.82,7.85.88,15.01.58,21.48-.92,6.47-1.5,12.1-4.04,16.87-7.63,4.77-3.59,8.43-8.04,10.98-13.36,2.55-5.32,3.83-11.34,3.83-18.08,0-6.65-1.28-12.97-3.83-18.94-2.55-5.98-6.21-11.4-10.98-16.24-4.77-4.85-10.39-8.83-16.87-11.93-6.48-3.1-13.64-5.1-21.48-5.99h0ZM653.33,80.27c-4.01-.45-7.7-1.43-11.07-2.94-3.37-1.51-6.29-3.42-8.77-5.72-2.48-2.3-4.38-4.94-5.7-7.93-1.32-2.99-1.99-6.1-1.98-9.34,0-3.32.66-6.33,1.98-9.01,1.32-2.68,3.22-4.92,5.7-6.71,2.47-1.79,5.4-3.08,8.77-3.87,3.37-.79,7.06-.96,11.07-.51,3.84.43,7.46,1.43,10.87,2.98,3.41,1.55,6.33,3.53,8.76,5.91,2.43,2.39,4.3,5.07,5.62,8.05,1.32,2.98,1.98,6.09,1.98,9.33,0,3.24-.66,6.18-1.98,8.83-1.32,2.65-3.19,4.87-5.62,6.66-2.43,1.79-5.33,3.06-8.69,3.81-3.37.75-7.01.91-10.94.46t0,0Z"/>
        <path class="cls-1" d="M839.26,45.13v84.52c-6.41-1.32-12.82-2.61-19.24-3.86.02-15.15.04-30.29.05-45.44,0-2.36,0-4.71,0-7.07-1.47,1.54-2.94,3.09-4.41,4.63-7.25,7.62-14.51,15.28-21.77,22.98-1.98-.36-3.96-.72-5.93-1.08-7.19-11.25-14.39-22.47-21.59-33.65-1.51-2.34-3.02-4.69-4.53-7.03.01,2.58.02,5.17.03,7.75.07,16.13.14,32.26.21,48.39-6.44-1.07-12.88-2.12-19.33-3.13V27.64c6.09.96,12.18,1.94,18.26,2.95,9.37,14.63,18.74,29.33,28.09,44.1.67,1.06,1.34,2.11,2.01,3.17.67-.81,1.34-1.62,2.02-2.44,9.41-11.36,18.81-22.66,28.2-33.89,5.98,1.18,11.95,2.38,17.92,3.61M841.73,43.14c-7.21-1.49-14.43-2.95-21.66-4.36-9.64,11.53-19.29,23.14-28.95,34.81-9.6-15.16-19.21-30.26-28.83-45.29-7.34-1.22-14.68-2.41-22.03-3.55v89.52c8.11,1.26,16.22,2.58,24.32,3.94-.07-16.97-.15-33.93-.22-50.9,7.45,11.55,14.9,23.15,22.34,34.79,2.8.5,5.59,1.01,8.38,1.52,7.51-7.96,15.01-15.87,22.51-23.75-.02,15.98-.04,31.96-.06,47.94,8.07,1.57,16.13,3.19,24.19,4.86V43.14s0,0,0,0Z"/>
      </g>
    </g>
  </g>
</svg>